<svg xmlns="http://www.w3.org/2000/svg" width="512" height="512" viewBox="0 0 512 512">
  <metadata><?xpacket begin="﻿" id="W5M0MpCehiHzreSzNTczkc9d"?>
<x:xmpmeta xmlns:x="adobe:ns:meta/" x:xmptk="Adobe XMP Core 5.6-c138 79.159824, 2016/09/14-01:09:01        ">
   <rdf:RDF xmlns:rdf="http://www.w3.org/1999/02/22-rdf-syntax-ns#">
      <rdf:Description rdf:about=""/>
   </rdf:RDF>
</x:xmpmeta>
                                                                                                    
                                                                                                    
                                                                                                    
                                                                                                    
                                                                                                    
                                                                                                    
                                                                                                    
                                                                                                    
                                                                                                    
                                                                                                    
                                                                                                    
                                                                                                    
                                                                                                    
                                                                                                    
                                                                                                    
                                                                                                    
                                                                                                    
                                                                                                    
                                                                                                    
                                                                                                    
                           
<?xpacket end="w"?></metadata>
<defs>
    <style>
      .cls-1 {
        fill-rule: evenodd;
      }
    </style>
  </defs>
  <path id="Forma_1" data-name="Forma 1" class="cls-1" d="M65,81V17a16,16,0,0,1,32,0V81A16,16,0,0,1,65,81ZM337,97a15.991,15.991,0,0,0,16-16V17a16,16,0,0,0-32,0V81A15.991,15.991,0,0,0,337,97ZM513,385A128,128,0,1,1,385,257,128.006,128.006,0,0,1,513,385Zm-32,0a96,96,0,1,0-96,96A96.1,96.1,0,0,0,481,385ZM129,193H65v64h64V193ZM65,353h64V289H65v64Zm96-96h64V193H161v64Zm0,96h64V289H161v64ZM33,381.813V161H385v64h32V100.188C417,80.75,401.5,65,382.344,65H369V81a32,32,0,0,1-64,0V65H113V81a32,32,0,0,1-64,0V65H35.672C16.516,65,1,80.75,1,100.188V381.813C1,401.188,16.516,417,35.672,417H225V385H35.672A3.028,3.028,0,0,1,33,381.813ZM321,257V193H257v64h64ZM433,385H385V337a16,16,0,0,0-32,0v64a15.99,15.99,0,0,0,16,16h64A16,16,0,0,0,433,385Z"/>
</svg>
