<svg xmlns="http://www.w3.org/2000/svg" width="61" height="60" viewBox="0 0 61 60">
  <metadata><?xpacket begin="﻿" id="W5M0MpCehiHzreSzNTczkc9d"?>
<x:xmpmeta xmlns:x="adobe:ns:meta/" x:xmptk="Adobe XMP Core 5.6-c138 79.159824, 2016/09/14-01:09:01        ">
   <rdf:RDF xmlns:rdf="http://www.w3.org/1999/02/22-rdf-syntax-ns#">
      <rdf:Description rdf:about=""/>
   </rdf:RDF>
</x:xmpmeta>
                                                                                                    
                                                                                                    
                                                                                                    
                                                                                                    
                                                                                                    
                                                                                                    
                                                                                                    
                                                                                                    
                                                                                                    
                                                                                                    
                                                                                                    
                                                                                                    
                                                                                                    
                                                                                                    
                                                                                                    
                                                                                                    
                                                                                                    
                                                                                                    
                                                                                                    
                                                                                                    
                           
<?xpacket end="w"?></metadata>
<defs>
    <style>
      .cls-1 {
        fill-rule: evenodd;
      }
    </style>
  </defs>
  <path id="Forma_1" data-name="Forma 1" class="cls-1" d="M30.853,26a7,7,0,1,0-6.981-7A7,7,0,0,0,30.853,26Zm0-12a5,5,0,1,1-4.987,5A5,5,0,0,1,30.853,14ZM50.08,37H42.938l3.039-4.4c5.74-7.671,4.909-20.28-1.776-26.982a19.089,19.089,0,0,0-27.048,0c-6.685,6.7-7.516,19.312-1.8,26.952L18.413,37H10.92L0,60H61ZM16.972,31.4c-5.185-6.933-4.442-18.32,1.592-24.369a17.1,17.1,0,0,1,24.227,0c6.034,6.049,6.777,17.437,1.569,24.4L30.676,51.243,20.84,37h0ZM12.181,39h7.614L30.676,54.757,41.557,39h7.262l9.024,19H3.157Z"/>
</svg>
