<svg xmlns="http://www.w3.org/2000/svg" xmlns:xlink="http://www.w3.org/1999/xlink" width="42" height="40" viewBox="0 0 42 40">
  <metadata><?xpacket begin="﻿" id="W5M0MpCehiHzreSzNTczkc9d"?>
<x:xmpmeta xmlns:x="adobe:ns:meta/" x:xmptk="Adobe XMP Core 5.6-c142 79.160924, 2017/07/13-01:06:39        ">
   <rdf:RDF xmlns:rdf="http://www.w3.org/1999/02/22-rdf-syntax-ns#">
      <rdf:Description rdf:about=""/>
   </rdf:RDF>
</x:xmpmeta>
                                                                                                    
                                                                                                    
                                                                                                    
                                                                                                    
                                                                                                    
                                                                                                    
                                                                                                    
                                                                                                    
                                                                                                    
                                                                                                    
                                                                                                    
                                                                                                    
                                                                                                    
                                                                                                    
                                                                                                    
                                                                                                    
                                                                                                    
                                                                                                    
                                                                                                    
                                                                                                    
                           
<?xpacket end="w"?></metadata>
<defs>
    <style>
      .cls-1 {
        fill-rule: evenodd;
        filter: url(#filter);
      }
    </style>
    <filter id="filter" x="0" y="0" width="42" height="40" filterUnits="userSpaceOnUse">
      <feFlood result="flood" flood-color="#fff"/>
      <feComposite result="composite" operator="in" in2="SourceGraphic"/>
      <feBlend result="blend" in2="SourceGraphic"/>
    </filter>
  </defs>
  <path id="Forma_1" data-name="Forma 1" class="cls-1" d="M20.931,22.448A11.224,11.224,0,1,0,9.69,11.207,11.243,11.243,0,0,0,20.931,22.448Zm0-19.517a8.276,8.276,0,1,1-8.276,8.276A8.3,8.3,0,0,1,20.931,2.931ZM1.483,40H40.517A1.472,1.472,0,0,0,42,38.517a14.12,14.12,0,0,0-14.1-14.1H14.1A14.12,14.12,0,0,0,0,38.517,1.472,1.472,0,0,0,1.483,40ZM14.1,27.379H27.9a11.131,11.131,0,0,1,11.034,9.655H3.069A11.16,11.16,0,0,1,14.1,27.379Z"/>
</svg>
